<svg xmlns="http://www.w3.org/2000/svg" xmlns:xlink="http://www.w3.org/1999/xlink" width="500" zoomAndPan="magnify" viewBox="0 0 375 374.999991" height="500" preserveAspectRatio="xMidYMid meet" version="1.0"><defs><g/></defs><g fill="#000000" fill-opacity="1"><g transform="translate(11.663578, 295.847588)"><g><path d="M 15.84375 -52.265625 C 16.769531 -47.628906 17.789062 -43.363281 18.90625 -39.46875 C 22.238281 -28.90625 27.054688 -21.957031 33.359375 -18.625 C 35.585938 -17.695312 38.503906 -17.234375 42.109375 -17.234375 C 45.722656 -17.234375 48.550781 -17.695312 50.59375 -18.625 C 58.5625 -22.519531 63.84375 -32.066406 66.4375 -47.265625 C 67.175781 -50.785156 67.546875 -74.96875 67.546875 -119.8125 L 67.828125 -194.59375 L 96.75 -194.59375 L 96.75 -123.15625 C 96.75 -89.425781 96.609375 -68.757812 96.328125 -61.15625 C 96.046875 -53.5625 95.347656 -47.351562 94.234375 -42.53125 C 92.015625 -33.632812 87.894531 -26.128906 81.875 -20.015625 C 75.851562 -13.898438 68.390625 -9.546875 59.484375 -6.953125 C 55.785156 -5.835938 51.203125 -5.28125 45.734375 -5.28125 C 40.265625 -5.28125 35.582031 -5.835938 31.6875 -6.953125 C 20.195312 -10.097656 11.859375 -19.734375 6.671875 -35.859375 C 5.003906 -40.492188 3.800781 -45.960938 3.0625 -52.265625 Z M 15.84375 -52.265625 "/></g></g></g><g fill="#000000" fill-opacity="1"><g transform="translate(127.86635, 295.847588)"><g><path d="M 20.84375 -194.328125 C 30.851562 -194.503906 35.953125 -194.59375 36.140625 -194.59375 C 36.140625 -194.414062 37.34375 -190.25 39.75 -182.09375 C 47.164062 -156.695312 58.007812 -118.238281 72.28125 -66.71875 C 76.726562 -50.96875 79.046875 -43.09375 79.234375 -43.09375 C 79.421875 -43.09375 80.347656 -45.960938 82.015625 -51.703125 C 91.085938 -82.472656 99.425781 -110.550781 107.03125 -135.9375 C 109.8125 -145.394531 111.203125 -150.492188 111.203125 -151.234375 C 111.203125 -151.972656 109.207031 -159.148438 105.21875 -172.765625 C 101.238281 -186.390625 99.25 -193.390625 99.25 -193.765625 C 99.25 -194.140625 104.53125 -194.328125 115.09375 -194.328125 L 130.65625 -194.328125 L 131.765625 -189.875 C 137.515625 -166.707031 146.503906 -134.367188 158.734375 -92.859375 C 159.847656 -86.921875 161.378906 -80.753906 163.328125 -74.359375 C 165.273438 -67.972656 166.753906 -63.0625 167.765625 -59.625 C 168.785156 -56.195312 169.390625 -54.207031 169.578125 -53.65625 L 170.421875 -51.15625 C 170.421875 -51.34375 173.753906 -62.832031 180.421875 -85.625 C 189.867188 -118.0625 198.953125 -147.710938 207.671875 -174.578125 C 211.003906 -185.148438 212.851562 -190.988281 213.21875 -192.09375 L 213.78125 -194.328125 L 221.5625 -194.328125 C 227.125 -194.328125 229.90625 -194.140625 229.90625 -193.765625 C 229.71875 -192.835938 226.378906 -181.90625 219.890625 -160.96875 C 216.742188 -150.394531 213.316406 -138.71875 209.609375 -125.9375 C 201.828125 -99.0625 193.671875 -72.09375 185.140625 -45.03125 C 184.222656 -42.070312 182.835938 -37.671875 180.984375 -31.828125 C 179.128906 -25.992188 177.550781 -20.804688 176.25 -16.265625 C 174.957031 -11.722656 174.21875 -9.175781 174.03125 -8.625 L 173.46875 -6.390625 L 162.078125 -6.390625 C 154.660156 -6.390625 150.859375 -6.578125 150.671875 -6.953125 C 150.484375 -7.316406 147.054688 -20.007812 140.390625 -45.03125 C 126.671875 -95.632812 119.722656 -120.9375 119.546875 -120.9375 C 118.796875 -120.9375 109.898438 -91.929688 92.859375 -33.921875 C 91.554688 -29.835938 90.347656 -25.753906 89.234375 -21.671875 C 88.117188 -17.597656 87.191406 -14.40625 86.453125 -12.09375 C 85.710938 -9.78125 85.34375 -8.625 85.34375 -8.625 L 85.0625 -6.390625 L 71.453125 -6.390625 C 64.585938 -6.390625 60.597656 -6.4375 59.484375 -6.53125 C 58.378906 -6.625 57.640625 -7.039062 57.265625 -7.78125 C 56.710938 -8.707031 55.320312 -13.4375 53.09375 -21.96875 C 49.207031 -36.238281 45.128906 -51.34375 40.859375 -67.28125 C 40.492188 -68.757812 38.085938 -77.5625 33.640625 -93.6875 C 29.191406 -109.8125 25.945312 -121.671875 23.90625 -129.265625 C 21.3125 -138.160156 16.304688 -156.046875 8.890625 -182.921875 C 8.710938 -183.847656 8.34375 -185.050781 7.78125 -186.53125 C 7.226562 -188.019531 6.859375 -189.226562 6.671875 -190.15625 C 6.484375 -191.082031 6.296875 -191.632812 6.109375 -191.8125 L 5.5625 -194.328125 Z M 20.84375 -194.328125 "/></g></g></g></svg>